<?xml version="1.0" standalone="no"?>
<!DOCTYPE svg PUBLIC "-//W3C//DTD SVG 20010904//EN"
 "http://www.w3.org/TR/2001/REC-SVG-20010904/DTD/svg10.dtd">
<svg version="1.0" xmlns="http://www.w3.org/2000/svg"
 width="260.000000pt" height="260.000000pt" viewBox="0 0 260.000000 260.000000"
 preserveAspectRatio="xMidYMid meet">
<metadata>
Created by potrace 1.14, written by Peter Selinger 2001-2017
</metadata>
<g transform="translate(0.000000,260.000000) scale(0.100000,-0.100000)"
fill="#000000" stroke="none">
<path d="M1109 2586 c-2 -2 -23 -6 -45 -9 -181 -25 -453 -143 -581 -252 -7 -5
-20 -16 -29 -24 -13 -11 -14 -15 -2 -23 9 -7 7 -8 -8 -4 -19 6 -70 -39 -174
-153 -37 -41 -109 -152 -153 -237 -33 -66 -100 -234 -92 -234 2 0 -3 -20 -10
-45 -17 -56 -21 -562 -5 -615 6 -19 13 -44 15 -54 8 -34 38 -121 44 -126 3 -3
6 -9 6 -15 0 -10 56 -126 65 -135 3 -3 12 -18 20 -35 25 -53 147 -209 207
-266 150 -143 346 -258 538 -315 33 -10 67 -18 75 -19 8 -1 40 -7 70 -14 59
-14 434 -11 480 3 14 5 36 9 50 11 14 2 45 11 70 20 25 9 53 18 63 20 37 8
224 103 297 151 96 62 281 247 344 344 84 128 176 338 192 440 2 14 9 48 16
75 6 28 12 118 13 200 1 136 -2 174 -20 255 -3 14 -8 41 -11 60 -3 19 -13 55
-21 79 -8 24 -16 52 -18 63 -9 43 -125 259 -179 332 -74 100 -181 207 -278
279 -43 31 -80 57 -82 57 -2 0 -32 16 -65 35 -34 19 -64 34 -66 34 -3 1 -19 8
-37 17 -38 20 -195 71 -246 80 -20 4 -46 9 -57 12 -24 6 -380 14 -386 8z
m-574 -415 c-5 -4 -56 55 -68 78 -5 9 10 -4 31 -29 22 -25 39 -47 37 -49z m35
-36 c13 -14 21 -25 18 -25 -2 0 -15 11 -28 25 -13 14 -21 25 -18 25 2 0 15
-11 28 -25z m64 -71 c5 -14 4 -15 -9 -4 -17 14 -19 20 -6 20 5 0 12 -7 15 -16z
m46 -56 c0 -6 -7 -5 -15 2 -8 7 -15 17 -15 22 0 6 7 5 15 -2 8 -7 15 -17 15
-22z m41 -50 c8 -15 8 -18 0 -14 -6 4 -16 16 -22 28 -8 15 -8 18 0 14 6 -4 16
-16 22 -28z m49 -60 c0 -6 -7 -5 -15 2 -8 7 -15 17 -15 22 0 6 7 5 15 -2 8 -7
15 -17 15 -22z m49 -62 c-2 -2 -13 8 -23 22 l-19 27 24 -22 c12 -12 21 -24 18
-27z m85 -89 c26 -32 47 -60 45 -62 -5 -4 -119 131 -119 140 0 8 13 -5 74 -78z
m86 -102 c11 -13 10 -14 -4 -9 -9 3 -16 10 -16 15 0 13 6 11 20 -6z m54 -75
c-6 -5 -24 21 -24 34 0 6 6 1 14 -10 8 -10 12 -21 10 -24z m60 -56 c42 -51 27
-49 -17 2 -21 24 -32 41 -25 38 7 -3 26 -21 42 -40z m-1009 -14 c3 -6 -1 -7
-9 -4 -18 7 -21 14 -7 14 6 0 13 -4 16 -10z m2402 4 c-3 -3 -12 -4 -19 -1 -8
3 -5 6 6 6 11 1 17 -2 13 -5z m-2350 -10 c-3 -3 -12 -4 -19 -1 -8 3 -5 6 6 6
11 1 17 -2 13 -5z m2250 0 c-3 -3 -12 -4 -19 -1 -8 3 -5 6 6 6 11 1 17 -2 13
-5z m-2200 -10 c-3 -3 -12 -4 -19 -1 -8 3 -5 6 6 6 11 1 17 -2 13 -5z m2160 0
c-3 -3 -12 -4 -19 -1 -8 3 -5 6 6 6 11 1 17 -2 13 -5z m-2070 -20 c-3 -3 -12
-4 -19 -1 -8 3 -5 6 6 6 11 1 17 -2 13 -5z m1980 0 c-3 -3 -12 -4 -19 -1 -8 3
-5 6 6 6 11 1 17 -2 13 -5z m-1890 -10 c-3 -3 -12 -4 -19 -1 -8 3 -5 6 6 6 11
1 17 -2 13 -5z m794 -26 c8 -15 8 -18 0 -14 -6 4 -16 16 -22 28 -8 15 -8 18 0
14 6 -4 16 -16 22 -28z m1006 26 c-3 -3 -12 -4 -19 -1 -8 3 -5 6 6 6 11 1 17
-2 13 -5z m-1750 -10 c-3 -3 -12 -4 -19 -1 -8 3 -5 6 6 6 11 1 17 -2 13 -5z
m1710 0 c-3 -3 -12 -4 -19 -1 -8 3 -5 6 6 6 11 1 17 -2 13 -5z m-50 -10 c-3
-3 -12 -4 -19 -1 -8 3 -5 6 6 6 11 1 17 -2 13 -5z m-1520 -10 c-3 -3 -12 -4
-19 -1 -8 3 -5 6 6 6 11 1 17 -2 13 -5z m46 -11 c-7 -2 -19 -2 -25 0 -7 3 -2
5 12 5 14 0 19 -2 13 -5z m1334 1 c-3 -3 -12 -4 -19 -1 -8 3 -5 6 6 6 11 1 17
-2 13 -5z m-1284 -11 c-7 -2 -19 -2 -25 0 -7 3 -2 5 12 5 14 0 19 -2 13 -5z
m578 -58 c7 -14 4 -12 -11 5 -11 14 -25 34 -31 45 -7 14 -4 12 11 -5 11 -14
25 -34 31 -45z m-444 39 c-3 -3 -12 -4 -19 -1 -8 3 -5 6 6 6 11 1 17 -2 13 -5z
m970 0 c-3 -3 -12 -4 -19 -1 -8 3 -5 6 6 6 11 1 17 -2 13 -5z m-920 -10 c-3
-3 -12 -4 -19 -1 -8 3 -5 6 6 6 11 1 17 -2 13 -5z m870 0 c-3 -3 -12 -4 -19
-1 -8 3 -5 6 6 6 11 1 17 -2 13 -5z m-824 -11 c-7 -2 -19 -2 -25 0 -7 3 -2 5
12 5 14 0 19 -2 13 -5z m692 -13 c3 -6 -1 -7 -9 -4 -18 7 -21 14 -7 14 6 0 13
-4 16 -10z m-548 -6 c-3 -3 -12 -4 -19 -1 -8 3 -5 6 6 6 11 1 17 -2 13 -5z
m500 0 c-3 -3 -12 -4 -19 -1 -8 3 -5 6 6 6 11 1 17 -2 13 -5z m-454 -11 c-7
-2 -19 -2 -25 0 -7 3 -2 5 12 5 14 0 19 -2 13 -5z m91 -15 c-4 -6 -65 0 -73 8
-2 2 14 3 36 1 23 -1 39 -5 37 -9z m59 -5 c3 -5 -6 -8 -19 -8 -13 0 -24 3 -24
8 0 4 9 7 19 7 11 0 22 -3 24 -7z m124 1 c-3 -3 -12 -4 -19 -1 -8 3 -5 6 6 6
11 1 17 -2 13 -5z m-133 -49 c-4 -8 -11 -15 -16 -15 -6 0 -5 6 2 15 7 8 14 15
16 15 2 0 1 -7 -2 -15z m201 -53 c-3 -3 -11 0 -18 7 -9 10 -8 11 6 5 10 -3 15
-9 12 -12z m-300 -4 c-11 -6 -27 -16 -35 -22 -9 -6 -5 -1 8 12 13 12 28 22 35
22 7 0 3 -6 -8 -12z m360 -26 c-3 -3 -11 0 -18 7 -9 10 -8 11 6 5 10 -3 15 -9
12 -12z m-430 -12 c-3 -5 -16 -15 -28 -21 -19 -9 -19 -8 3 10 28 23 34 26 25
11z m470 -10 c3 -6 -1 -7 -9 -4 -18 7 -21 14 -7 14 6 0 13 -4 16 -10z m46 -27
c13 -16 12 -17 -3 -4 -17 13 -22 21 -14 21 2 0 10 -8 17 -17z m-571 3 c0 -2
-11 -11 -25 -20 -14 -9 -25 -13 -25 -8 0 5 10 14 23 20 27 13 27 13 27 8z
m-70 -41 c0 -2 -10 -9 -22 -15 -22 -11 -22 -10 -4 4 21 17 26 19 26 11z m-80
-50 c0 -2 -9 -9 -20 -15 -12 -6 -20 -7 -20 -1 0 5 8 12 18 14 9 3 18 5 20 6 1
0 2 -1 2 -4z m-110 -65 c-8 -5 -19 -10 -25 -10 -5 0 -3 5 5 10 8 5 20 10 25
10 6 0 3 -5 -5 -10z m-40 -14 c0 -2 -8 -10 -17 -17 -16 -13 -17 -12 -4 4 13
16 21 21 21 13z m-50 -36 c0 -5 -5 -10 -11 -10 -5 0 -7 5 -4 10 3 6 8 10 11
10 2 0 4 -4 4 -10z m-121 -74 c-2 -2 -15 -9 -29 -15 -24 -11 -24 -11 -6 3 16
13 49 24 35 12z m-59 -30 c0 -2 -7 -7 -16 -10 -8 -3 -12 -2 -9 4 6 10 25 14
25 6z m-45 -26 c-3 -6 -21 -17 -38 -26 -36 -19 -31 -9 10 17 34 21 36 22 28 9z
m-125 -75 c-7 -8 -17 -15 -23 -15 -6 0 -2 7 9 15 25 19 30 19 14 0z m-40 -19
c0 -2 -12 -11 -27 -20 l-28 -17 24 20 c23 21 31 25 31 17z m-61 -39 c-2 -1
-13 -9 -24 -17 -19 -14 -19 -14 -6 3 7 9 18 17 24 17 6 0 8 -1 6 -3z"/>
</g>
</svg>
